<svg xmlns="http://www.w3.org/2000/svg" xmlns:xlink="http://www.w3.org/1999/xlink" width="370.52" height="189.5" viewBox="0 0 370.52 189.5"><defs><style>.a{fill:url(#a);}.b{fill:url(#b);}.c{fill:url(#c);}.d{fill:url(#d);}.e{fill:url(#e);}.f{fill:url(#f);}.g{fill:url(#g);}.h{fill:url(#h);}.i{fill:url(#i);}.j{fill:url(#j);}.k{fill:url(#k);}.l{fill:url(#l);}.m{fill:url(#m);}.n{fill:url(#n);}.o{fill:url(#o);}.p{fill:url(#p);}.q{fill:url(#q);}.r{fill:url(#r);}.s{fill:url(#s);}.t{fill:url(#t);}.u{fill:url(#u);}.v{fill:url(#v);}.w{fill:url(#w);}.x{fill:url(#y);}.y{fill:url(#z);}.z{fill:url(#aa);}.aa{fill:url(#ab);}.ab{fill:url(#ac);}.ac{fill:url(#ad);}.ad{fill:#feb99b;}.ae{fill:#343434;}.af{fill:#ffd5c3;}.ag{fill:#5c5c5c;}.ah{fill:#3e3e3e;}.ai{fill:#fed4c2;}.aj{fill:#301b20;}.ak{fill:url(#ae);}.al{fill:url(#af);}.am{fill:#007adc;}</style><linearGradient id="a" x1="-0.47" y1="-1.86" x2="0.689" y2="1" gradientUnits="objectBoundingBox"><stop offset="0" stop-color="#d2d2d2"/><stop offset="1" stop-color="#d2d2d2" stop-opacity="0"/></linearGradient><linearGradient id="b" x1="1.19" y1="-1.109" x2="0.545" y2="0.556" xlink:href="#a"/><linearGradient id="c" x1="0.5" y1="-2.212" x2="0.5" xlink:href="#a"/><linearGradient id="d" x1="1.001" y1="-0.978" x2="0.388" y2="1.047" xlink:href="#a"/><linearGradient id="e" x1="0.5" y1="-2.301" x2="0.5" xlink:href="#a"/><linearGradient id="f" x1="0.5" y1="-1.692" x2="0.5" xlink:href="#a"/><linearGradient id="g" x1="0.5" y1="1" x2="0.5" gradientUnits="objectBoundingBox"><stop offset="0" stop-color="#5caae8" stop-opacity="0.302"/><stop offset="1" stop-color="#fff" stop-opacity="0"/></linearGradient><linearGradient id="h" x1="0.881" y1="1.048" x2="0.466" y2="0.022" gradientUnits="objectBoundingBox"><stop offset="0" stop-color="#5caae8" stop-opacity="0.502"/><stop offset="0.29" stop-color="#99caf1" stop-opacity="0.31"/><stop offset="0.6" stop-color="#d0e7f8" stop-opacity="0.141"/><stop offset="0.85" stop-color="#f2f8fd" stop-opacity="0.039"/><stop offset="1" stop-color="#fff" stop-opacity="0"/></linearGradient><linearGradient id="i" x1="0.5" y1="-0.001" x2="0.5" y2="1" gradientUnits="objectBoundingBox"><stop offset="0" stop-color="#7ab9eb"/><stop offset="0.1" stop-color="#8bc2ee"/><stop offset="0.25" stop-color="#9fcdf1"/><stop offset="0.43" stop-color="#add4f3"/><stop offset="0.64" stop-color="#b5d9f5"/><stop offset="1" stop-color="#b8daf5"/></linearGradient><linearGradient id="j" x1="0.496" x2="0.496" y2="1" gradientUnits="objectBoundingBox"><stop offset="0" stop-color="#5caae8"/><stop offset="0.09" stop-color="#6cb2ea"/><stop offset="0.25" stop-color="#80bced"/><stop offset="0.43" stop-color="#8ec3ef"/><stop offset="0.64" stop-color="#96c8f1"/><stop offset="1" stop-color="#99c9f1"/></linearGradient><linearGradient id="k" y1="0" xlink:href="#i"/><linearGradient id="l" x1="0.501" y1="0" x2="0.501" xlink:href="#j"/><linearGradient id="m" y1="0.501" x2="1" y2="0.501" gradientUnits="objectBoundingBox"><stop offset="0" stop-color="#b8daf5"/><stop offset="0.04" stop-color="#beddf6"/><stop offset="0.2" stop-color="#d2e7f9"/><stop offset="0.39" stop-color="#e0eefb"/><stop offset="0.62" stop-color="#e8f3fd"/><stop offset="1" stop-color="#ebf4fd"/></linearGradient><linearGradient id="n" x1="0.493" y1="0.296" x2="0.507" y2="0.706" xlink:href="#m"/><linearGradient id="o" x1="0.425" y1="0.063" x2="0.575" y2="0.932" xlink:href="#m"/><linearGradient id="p" x1="0.493" y1="0.293" x2="0.507" y2="0.705" xlink:href="#m"/><linearGradient id="q" x1="0.425" y1="0.061" x2="0.575" y2="0.932" xlink:href="#m"/><linearGradient id="r" x1="0.493" y1="0.295" x2="0.507" y2="0.707" xlink:href="#m"/><linearGradient id="s" x1="0.442" y1="0.061" x2="0.589" y2="0.929" xlink:href="#m"/><linearGradient id="t" x1="0.493" y1="0.293" x2="0.507" y2="0.705" xlink:href="#m"/><linearGradient id="u" x1="0.435" y1="0.058" x2="0.581" y2="0.929" xlink:href="#m"/><linearGradient id="v" x1="0.493" y1="0.296" x2="0.507" y2="0.706" xlink:href="#m"/><linearGradient id="w" x1="0.427" y1="0.061" x2="0.576" y2="0.929" xlink:href="#m"/><linearGradient id="y" x1="0.427" y1="0.058" x2="0.576" y2="0.929" xlink:href="#m"/><linearGradient id="z" x1="0.426" y1="0.03" x2="0.672" y2="1.012" xlink:href="#m"/><linearGradient id="aa" x1="0.327" y1="-0.002" x2="0.578" y2="0.98" xlink:href="#m"/><linearGradient id="ab" x1="0.426" y1="0.014" x2="0.572" y2="0.981" gradientUnits="objectBoundingBox"><stop offset="0" stop-color="#5caae8"/><stop offset="0" stop-color="#5eabe8"/><stop offset="0.1" stop-color="#83beee"/><stop offset="0.2" stop-color="#a3cff2"/><stop offset="0.31" stop-color="#bedcf6"/><stop offset="0.43" stop-color="#d2e7f9"/><stop offset="0.56" stop-color="#e0eefb"/><stop offset="0.73" stop-color="#e8f3fd"/><stop offset="1" stop-color="#ebf4fd"/></linearGradient><linearGradient id="ac" x1="0.423" y1="0.014" x2="0.572" y2="0.996" xlink:href="#ab"/><linearGradient id="ad" x1="0.425" y1="0.013" x2="0.574" y2="0.986" xlink:href="#ab"/><linearGradient id="ae" x1="-27.988" y1="0.71" x2="-28.885" y2="0.187" gradientUnits="objectBoundingBox"><stop offset="0" stop-color="#007adc"/><stop offset="1" stop-color="#0ab0ed"/></linearGradient><linearGradient id="af" x1="-21.629" y1="0.784" x2="-22.7" y2="0.346" xlink:href="#ae"/></defs><g transform="translate(0 10)"><g transform="translate(0 -20)"><path class="a" d="M73.26,159.55l-2.94-1.58-2.94-2.13-2.69-2.51-2.34-2.84-1.87-3.12-1.22-3.26-.42-2.25-.02-2.25.38-2.28.92-.08.87.19.77.44.62.69,1,1.49,2.42,3.34,2.97,3.42,1.52,1.28,1.12.51.62-.04.48-.46.36-1.1.04-2.22-.65-4.51-2.1-9.2-2.04-9.2-.7-4.66-.35-4.75.16-3.48.51-2.92.83-2.45,1.21-2.27,1.37-1.73,1.52-1.27,1.75-.88,1.77-.37,1.85.1,1.76.58,1.75,1.14,1.79,1.8,1.42,2.12,1.31,2.86,1.16,3.77.58,3.37,1.05,5.75.73,3.17.86,2.98,1.06,2.72,1.11,1.85.92.87.91.31.99-.17.92-.68.66-.93,1.21-2.32,1.07-2.5,1.1-2.47,1.25-2.16,1.03-1.25,1.24-.95,1.5-.69,1.45-.27,1.39.06,1.38.37,1.94.99,1.82,1.46,1.59,1.75,1.31,1.89,1.38,2.56,1.49,3.35,1.3,3.6,1.11,3.94.78,4.03.34,3.94-.06,2.62-.35,2.4-.62,2.22-.96,2.06-1.32,1.76-1.72,1.5-2.03,1.2-2.42,1.11-2.86.99-4.48,1.14-4.98.82-5.11.48-5.13.14-5.05-.21-4.59-.53-4.31-.92-3.36-1.18Z"/><path class="b" d="M273.19,180.43l-1.12-3.14-.76-3.55-.31-3.67.17-3.68.41-2.42.67-2.26.91-2.13,1.21-1.95,1.5-1.68,1.82-1.45.74.57.51.74.26.86-.01.93-.27,1.78-.44,4.1-.1,4.53.27,1.97.49,1.13.49.39.66-.02,1.01-.58,1.51-1.62,2.55-3.78,4.66-8.24,4.67-8.19,2.58-3.92,2.9-3.76,2.44-2.49,2.34-1.82,2.26-1.27,2.42-.88,2.17-.37,1.98.08,1.89.52,1.57.91,1.3,1.32.92,1.62.54,2.02.12,2.54-.36,2.53-.95,3-1.66,3.58-1.83,2.89-3.07,4.97-1.59,2.84-1.37,2.78-1.04,2.74-.41,2.11.09,1.27.47.84.85.55,1.13.1,1.11-.24,2.45-.91,2.48-1.14,2.48-1.09,2.39-.77,1.6-.24,1.57.11,1.58.48,1.25.78.99.97.78,1.2.77,2.04.37,2.3.01,2.36-.3,2.28-.97,3.35-1.6,3.38-2.13,3.14-2.66,2.81-2.02,1.61-2.2,1.32-2.4,1.04-2.52.68-2.68.27-2.89-.14-4.58-.82-5.18-1.34-5.18-1.76-5.09-2.2-3.29-1.73-2.96-1.87-2.67-2.01-2.41-2.28-1.87-2.37-1.39-2.46Z"/><path class="c" d="M370.52,199.36l-8.83-5.78-9.32-5.52-9.83-5.27-10.36-5.01-10.45-4.55-10.87-4.25-11.32-3.92-11.77-3.61-11.8-3.15-12.15-2.77-12.51-2.4-12.89-2.01-12.87-1.56-13.14-1.13-13.42-.68-13.73-.25-13.73.25-13.42.68-13.15,1.13-12.86,1.56-12.89,2.01-12.51,2.4L94.55,158.3l-11.8,3.15-11.77,3.61-11.32,3.92-10.87,4.25-10.46,4.55-10.35,5.01-9.83,5.27-9.32,5.52L0,199.36Z"/><path class="d" d="M293.47,103.06l-1.37,1.96-1.13,2.18-.81,2.32-.41,2.38.05,2.41.6,2.39.8,1.41,1,1.04,1.07.96.95,1.06.62,1.28.2,2.01-.43,2.21-.75,2.09-1.07,1.99-2.24,3.56-2.54,3.32-2.82,3.11,1.62,1.65,1.11,1.97.57,2.19-.01,2.31-.54,2.26-.89,2.13-1.21,1.96-1.52,1.76-1.12,1.05-1.35.73-1.42.16-1.42-.16-4.55-.99-4.41-1.41-4.28-1.83-1.95-1.03-1.79-1.26-1.47-1.53-.97-1.85-.3-1.52.08-1.07.36-.75.95-.96,1.28-.78.46-.26,1.31-.83,1.04-1.11.75-1.7.46-1.88.58-3.76.37-4.16.27-2.28.56-2.05.64-1.18.93-.91,1.27-.65,2.62-.47,2.61-.48,1.68-.79,1.37-1.06,1.11-1.34,1.35-2.33,1.16-2.6.26-.64,1.35-2.93.78-1.36.9-1.21,1.1-.98,1.44-.87,3.01-1.46,1.33-.74ZM282.8,123.79l-1.38,1.73-3.27,4.64-1.89,3.09-1.98,3.68-1.75,3.91-1.42,4.18-.69,2.87-.39,2.87-.09,2.87h4.29l.36-2.9,1.3-7.31,1.09-4.57,1.53-5.1,1.91-5.07Z"/><path class="e" d="M104.14,22.01h0l-.25-2.34-.77-2.13-1.22-1.88-1.63-1.56-1.95-1.14-2.25-.68-2.35-.13-2.22.42-2.06.91-1.79,1.36-1.44,1.74L85.19,18.7,83,18.96l-1.98.8-1.71,1.29-1.34,1.74-.82,2.04-.25,2.12.32,2.12.89,2.01,1.39,1.7,1.75,1.23,2.01.74,2.18.19h17.89l1.67-.25,1.45-.59,1.28-.95,1.01-1.23.66-1.42.33-1.65-.12-1.69-.49-1.49-.85-1.34-1.14-1.1-1.37-.77-1.62-.45Z" transform="translate(0 10)"/><path class="f" d="M178.07,12.21v-.06l-.16-1.96-.44-1.83-.72-1.72-1.54-2.32-2.03-1.91-1.57-1L169.88.67,167.97.18,166.02,0l-1.88.13-1.82.41-2.55,1.13-2.22,1.67-1.26,1.38-1.02,1.57-.81,1.79-1.85.21-1.7.49-1.56.77-1.41,1.03-1.19,1.23-.98,1.44-.73,1.59-.43,1.7-.15,1.86.2,1.85.49,1.69.78,1.56,1.03,1.41,1.23,1.19,1.44.99,1.59.72,1.7.44,1.86.14H177l2.08-.26,1.86-.75,1.61-1.18,1.28-1.53.87-1.81.4-2.06-.14-2.09-.64-1.91-1.07-1.67-1.45-1.37-1.75-.98-2.04-.52Z" transform="translate(0 10)"/></g><g transform="translate(68 54.792)"><path class="g" d="M184.86,100.5c0,2.87-6.31,5.19-14.09,5.19s-14.09-2.32-14.09-5.19,6.31-5.19,14.09-5.19S184.86,97.63,184.86,100.5Z"/><path class="h" d="M64.08,67.54c-5.88,1-11.45,2.21-16.66,3.5L64.08,84.19Z"/><path class="i" d="M160,15l-.21,55.75a3.1,3.1,0,0,1-2.65,3L68.22,86.52V27.72Z"/><path class="j" d="M68.22,86.52l-3.58-2a3.1,3.1,0,0,1-1.57-2.69V24.91l5.16,2.83Z"/><path class="k" d="M161.96,2.71l-.06,12.28L66.51,28.25V15.42Z"/><path class="l" d="M66.51,28.25l-5.36-2.94L61.14,12.5l5.37,2.92Z"/><path class="m" d="M66.51,15.42,61.14,12.5,155,0a4.776,4.776,0,0,1,2.85.5L162,2.71Z"/><path class="n" d="M106.12,33.89l-.01,2.31L83.33,39.4V37.1Z"/><path class="o" d="M80.08,37a.155.155,0,0,1,.14.05.19.19,0,0,1,.05.13v3a.258.258,0,0,1-.19.25l-2.75.39a.174.174,0,0,1-.19-.19v-3a.238.238,0,0,1,.19-.24Zm-.13,1.38a.331.331,0,0,0,0-.42.221.221,0,0,0-.19-.06.311.311,0,0,0-.19.11L78.5,39.32l-.61-.58a.221.221,0,0,0-.19-.06.311.311,0,0,0-.19.11.332.332,0,0,0,0,.42l.8.75.19.06.19-.11,1.27-1.54"/><path class="p" d="M106.1,43.71v2.31L83.31,49.23V46.91Z"/><path class="q" d="M80.06,46.83a.155.155,0,0,1,.14.05.19.19,0,0,1,.05.13v3a.258.258,0,0,1-.19.25l-2.75.39a.174.174,0,0,1-.19-.19v-3a.238.238,0,0,1,.19-.24Zm-.13,1.38a.332.332,0,0,0,0-.42.221.221,0,0,0-.19-.06.311.311,0,0,0-.19.11l-1.07,1.3-.61-.57a.221.221,0,0,0-.19-.06.311.311,0,0,0-.19.11.332.332,0,0,0,0,.42l.8.75.19.06.19-.11,1.27-1.54"/><path class="r" d="M106.08,53.53v2.32l-22.79,3.2V56.74Z"/><path class="s" d="M80,56.66a.155.155,0,0,1,.14.05.19.19,0,0,1,.05.13v3a.258.258,0,0,1-.19.25l-2.75.39a.174.174,0,0,1-.19-.19v-3a.208.208,0,0,1,.05-.2A.246.246,0,0,1,77.3,57Z"/><path class="t" d="M106.06,63.36v2.31L83.27,68.88l.01-2.32Z"/><path class="u" d="M80,66.49a.155.155,0,0,1,.14.05.19.19,0,0,1,.05.13v3a.258.258,0,0,1-.19.25l-2.75.39a.174.174,0,0,1-.19-.19v-3a.238.238,0,0,1,.19-.24Z"/><path class="v" d="M153.64,27.21l-.01,2.31-22.79,3.2.01-2.3Z"/><path class="w" d="M127.6,30.33a.155.155,0,0,1,.14.05.19.19,0,0,1,.05.13v3a.258.258,0,0,1-.19.25l-2.75.39a.147.147,0,0,1-.14-.05.2.2,0,0,1-.06-.14V31a.247.247,0,0,1,.2-.24Zm-.13,1.38a.332.332,0,0,0,0-.42.221.221,0,0,0-.19-.06.311.311,0,0,0-.19.11L126,32.66l-.61-.58a.242.242,0,0,0-.2-.06.311.311,0,0,0-.19.11.332.332,0,0,0,0,.42l.8.75.19.06.19-.11,1.27-1.54"/><path class="p" d="M153.62,37.03v2.32l-22.79,3.2V40.23Z"/><path class="x" d="M127.58,40.16a.155.155,0,0,1,.14.05.19.19,0,0,1,.05.13v3a.258.258,0,0,1-.19.25l-2.75.39a.147.147,0,0,1-.14-.05.2.2,0,0,1-.06-.14v-3a.247.247,0,0,1,.2-.24Zm-.13,1.38a.331.331,0,0,0,0-.42.221.221,0,0,0-.19-.06.311.311,0,0,0-.19.11L126,42.48l-.61-.57a.242.242,0,0,0-.2-.06A.317.317,0,0,0,125,42a.332.332,0,0,0,0,.42l.8.75.19.06.19-.11,1.27-1.54"/><path class="y" d="M116.11,47.49a.315.315,0,0,1,.26.08.426.426,0,0,1,0,.56l-1.24,1.51,1.23,1.16a.447.447,0,0,1,.07.43.46.46,0,0,1-.34.28.315.315,0,0,1-.26-.08L114.35,50a.4.4,0,0,1,0-.56l1.5-1.83A.42.42,0,0,1,116.11,47.49Z"/><path class="z" d="M114.63,39a.353.353,0,0,1,.26.08l1.49,1.4a.439.439,0,0,1,0,.57l-1.5,1.82a.461.461,0,0,1-.26.15.315.315,0,0,1-.26-.08.4.4,0,0,1,0-.56l1.23-1.51-1.22-1.16a.4.4,0,0,1,0-.56A.461.461,0,0,1,114.63,39Z"/><path class="aa" d="M75.45,19.24a1.612,1.612,0,0,1,1.34.44,1.635,1.635,0,0,1,.5,1.32,2.282,2.282,0,0,1-1.84,2.24A1.635,1.635,0,0,1,73.6,21.5,2.294,2.294,0,0,1,75.45,19.24Z"/><path class="ab" d="M82.15,18.3a1.659,1.659,0,0,1,1.33.41A1.641,1.641,0,0,1,84,20a2.282,2.282,0,0,1-1.84,2.24,1.622,1.622,0,0,1-1.85-1.73A2.3,2.3,0,0,1,82.15,18.3Z"/><path class="ac" d="M88.85,17.36a1.634,1.634,0,0,1,1.84,1.74,2.282,2.282,0,0,1-1.84,2.24A1.622,1.622,0,0,1,87,19.61,2.3,2.3,0,0,1,88.85,17.36Z"/><path class="ad" d="M177.22,94.12l-2.52,1.25-1.52-3.04,2.52-1.26Z"/><path class="ae" d="M176.12,91.62,173.27,93s-7.12-10.59-10.54-17.84a8.366,8.366,0,0,1-.77-4.32l1.17-17.93h4.2S176.2,90.57,176.12,91.62Z"/><path d="M176.56,92.22c.26-.16.75.13,1.21,1.16s.91,1.49.1,2-5.52,2.77-6.84,3.43c-.45.22-.57-.29-.61-.41-.17-.53-.17-1.46,1.2-2.32,1-.72,1.5-2.24,2-2.49s.9.12,1.64-.31A14.659,14.659,0,0,0,176.56,92.22Z"/><path class="af" d="M173.43,99.04h-2.82v-3.4h2.82Z"/><path class="ag" d="M176.64,54.6s-1.23,12.57-2.3,15.68c0,0,2.21,8.82-.78,26h-3.19s-4.9-36.81-3.87-41.72Z"/><path class="ah" d="M173.68,97.06c.3,0,.61.45.56,1.58s.15,1.74-.79,1.82-6.17,0-7.65,0c-.5,0-.38-.52-.36-.64.09-.55.49-1.38,2.11-1.54,1.19-.21,2.34-1.34,2.87-1.35s.75.5,1.61.45A15.026,15.026,0,0,0,173.68,97.06Z"/><path class="ad" d="M171.02,28.79h-3.54V22.26h3.54Z"/><path class="af" d="M165,18.37s-.69,5.86.87,6.39c1.3.44,4.56-.83,5.2-1.91.77-1.3-.13-4.08-.13-4.08l-3.22-2.12-2.59.82Z"/><path class="ai" d="M150.5,31c.54,1.22,1.06,1.37,1.27,1.38a.091.091,0,0,0,.07-.03.144.144,0,0,0,.02-.07.9.9,0,0,1,0-.46.2.2,0,0,1,.14-.14.228.228,0,0,1,.19.07l1.28,1.45-2.53,2.36a12.7,12.7,0,0,1-1.64-2.86,1.707,1.707,0,0,1-.11-1,1,1,0,0,1,1-.86A.3.3,0,0,1,150.5,31Z"/><path class="aj" d="M171,23.63s-.51.07-.58-1.06a.162.162,0,0,1,.1-.16,1.165,1.165,0,0,0,.68-1.66c-.4-1.17-1.33-.27-1.61.3a.06.06,0,1,1-.12,0c-.14-.91-.68-3.5-2.52-3.62-2.24-.14-1.88,1.83-1.88,1.83s-.31-.12-.28-1.58c0,0-.4.34-.2,1.24,0,0-.26-.06-.29-.69a2.419,2.419,0,0,1,.81-1.87,5.363,5.363,0,0,1,4.46-1.13,2.229,2.229,0,0,1,1.28.61,2,2,0,0,1,.42.62,2.161,2.161,0,0,1,1.95,2c.08,1.79-.44,3.08-1.2,3.6A2.782,2.782,0,0,0,171,23.63Z"/><path class="ak" d="M162.69,29.86l-2.92,9.64a.579.579,0,0,1-.44.4.6.6,0,0,1-.56-.2l-5.29-6.51-2.62,2.32,7.8,9.75a1.308,1.308,0,0,0,1.76.25l6.49-4.56Z"/><path class="al" d="M167.48,26.53s.06,1.86,1,1.94S171,25.52,171,25.52s5.25,2.08,6.44,4.33h0l5.59,11.23a1.293,1.293,0,0,1-.25,1.5l-5.1,5.07V54.6H162.53V30.3S163,26.9,167.48,26.53Z"/><path class="am" d="M174.62,35.6l3,4.9a.737.737,0,0,1-.08.88l-5.81,6.49h0l5-6.9Z"/><path class="ai" d="M168.71,52.18c1.22-.56,1.36-1.08,1.36-1.29a.1.1,0,0,0-.04-.07.082.082,0,0,0-.07-.01.9.9,0,0,1-.46,0,.2.2,0,0,1-.14-.14.228.228,0,0,1,.07-.19l1.44-1.3,2.39,2.49a12.465,12.465,0,0,1-2.84,1.67,1.711,1.711,0,0,1-1,.12,1,1,0,0,1-.88-1A.3.3,0,0,1,168.71,52.18Z"/><path class="am" d="M177.71,47.66v1.57l-3.32,1.73Z"/></g></g></svg>