<svg xmlns="http://www.w3.org/2000/svg" width="16.018" height="16" viewBox="0 0 16.018 16"><defs><style>.a{fill:#0060ce;}</style></defs><path class="a" d="M73.009,81.9a8,8,0,1,1,8.009-8A8,8,0,0,1,73.009,81.9Zm-.045-14.508a6.4,6.4,0,0,0-6.382,6.5,6.313,6.313,0,0,0,6.382,6.4,6.421,6.421,0,0,0,6.509-6.4A6.5,6.5,0,0,0,72.964,67.392Zm3.256,7.3h-2.4v2.4a.8.8,0,0,1-.8.8h0a.8.8,0,0,1-.8-.8v-2.4h-2.4a.8.8,0,0,1-.8-.8v0a.8.8,0,0,1,.8-.8h2.4v-2.4a.8.8,0,0,1,.8-.8h0a.8.8,0,0,1,.8.8v2.4h2.4a.8.8,0,0,1,.8.8v0A.8.8,0,0,1,76.22,74.691Zm0,0" transform="translate(-65 -65.9)"/></svg>