<svg class="icon" viewBox="0 0 1024 1024" xmlns="http://www.w3.org/2000/svg" width="32" height="32"><defs><style/></defs><path d="M431.673 161.906h181.134c33.337 0 60.302-26.966 60.302-60.302v-.114c0-33.337-26.965-60.302-60.302-60.302H431.673c-33.337 0-60.302 26.965-60.302 60.302v.114c0 33.336 26.965 60.302 60.302 60.302zm402.432-60.302H733.184v24.12c0 42.212-34.133 76.345-76.345 76.345H387.527c-42.098 0-76.345-34.133-76.345-76.345v-24.12H190.236c-44.487 0-80.44 36.067-80.44 80.44v723.058c0 44.487 36.067 80.441 80.44 80.441h643.869c44.487 0 80.44-36.067 80.44-80.44v-723.06c0-44.487-36.067-80.44-80.44-80.44zM290.816 442.937a20.103 20.103 0 0 1 20.139-20.139h80.44v-80.44a20.103 20.103 0 0 1 20.14-20.14 20.103 20.103 0 0 1 20.138 20.14v80.44h80.44a20.103 20.103 0 0 1 20.14 20.139 20.103 20.103 0 0 1-20.14 20.139h-80.44v80.44a20.103 20.103 0 0 1-20.139 20.14 20.103 20.103 0 0 1-20.138-20.14v-80.44h-80.441a20.103 20.103 0 0 1-20.139-20.14zm442.71 342.13a20.103 20.103 0 0 1-20.14 20.138h-402.43a20.103 20.103 0 0 1-20.139-20.138 20.103 20.103 0 0 1 20.139-20.139h402.432a20.103 20.103 0 0 1 20.138 20.139zm0-120.719a20.103 20.103 0 0 1-20.14 20.14h-402.43a20.103 20.103 0 0 1-20.139-20.14 20.103 20.103 0 0 1 20.139-20.138h402.432a20.103 20.103 0 0 1 20.138 20.138z"/></svg>