<svg xmlns="http://www.w3.org/2000/svg" width="16.655" height="16.656" viewBox="0 0 16.655 16.656"><defs><style>.a{fill:#ff2727;}</style></defs><g transform="translate(-42.668 -42.667)"><path class="a" d="M-1714.805-1325.477h-6.511a1.8,1.8,0,0,1-1.278-.54,1.8,1.8,0,0,1-.539-1.277v-6.511a.717.717,0,0,1,.757-.758.717.717,0,0,1,.756.758v6.511a.324.324,0,0,0,.3.3h6.511a.717.717,0,0,1,.757.758A.717.717,0,0,1-1714.805-1325.477Zm6.209-2.65h-9.767a2.122,2.122,0,0,1-2.12-2.12v-9.767a2.073,2.073,0,0,1,2.12-2.12h9.767a2.073,2.073,0,0,1,2.119,2.12v9.767A2.122,2.122,0,0,1-1708.6-1328.126Zm-9.767-12.492a.647.647,0,0,0-.607.6v9.767a.647.647,0,0,0,.607.606h9.767a.647.647,0,0,0,.606-.606v-9.767a.646.646,0,0,0-.606-.6Zm7.267,8.555a.827.827,0,0,1-.529-.229l-1.817-1.816-1.816,1.816a.827.827,0,0,1-.529.229.829.829,0,0,1-.531-.229.749.749,0,0,1-.229-.529.751.751,0,0,1,.229-.531l1.816-1.816-1.816-1.818a.744.744,0,0,1-.227-.529.745.745,0,0,1,.227-.53.75.75,0,0,1,.531-.227.75.75,0,0,1,.529.226l1.816,1.818,1.817-1.817a.748.748,0,0,1,.529-.227.752.752,0,0,1,.531.226.753.753,0,0,1,.227.531.745.745,0,0,1-.227.529l-1.817,1.818,1.817,1.816a.75.75,0,0,1,.227.531.748.748,0,0,1-.227.529A.826.826,0,0,1-1711.1-1332.063Z" transform="translate(1765.8 1384.801)"/></g></svg>