<svg xmlns="http://www.w3.org/2000/svg" width="15.003" height="15.642" viewBox="0 0 15.003 15.642"><defs><style>.a{fill:#0060ce;}</style></defs><path class="a" d="M-1595.6-4286.157h-13.528a.732.732,0,0,1-.521-.215.74.74,0,0,1-.217-.521.738.738,0,0,1,.739-.735h13.528a.737.737,0,0,1,.736.735A.737.737,0,0,1-1595.6-4286.157Zm-13.336-2.493a.706.706,0,0,1-.575-.262.833.833,0,0,1-.115-.733l.762-3a2.029,2.029,0,0,1,.474-.837l8.088-7.993a1.105,1.105,0,0,1,.787-.323,1.182,1.182,0,0,1,.841.351l1.852,1.853a1.189,1.189,0,0,1,.352.823,1.094,1.094,0,0,1-.321.8l-8.088,7.994a2.137,2.137,0,0,1-.833.483l-2.94.8A1.113,1.113,0,0,1-1608.933-4288.65Zm1.823-4.028-.225.223-.017.021a.963.963,0,0,0-.1.167l-.476,1.868,1.785-.489.025-.008a1.124,1.124,0,0,0,.184-.1l.25-.253-1.429-1.425Zm7.41-7.41-6.222,6.221-.147.146,1.429,1.432,6.3-6.3.07-.071-1.357-1.358-.071-.07h0Z" transform="translate(1609.863 4301.799)"/></svg>