<svg xmlns="http://www.w3.org/2000/svg" width="15.964" height="15.965" viewBox="0 0 15.964 15.965"><defs><style>.a{fill:#0060ce;}</style></defs><g transform="translate(-128 -127.975)"><path class="a" d="M133.853,135.07h-2.293a.888.888,0,1,0,0,1.775h4.434a.866.866,0,0,0,.339-.069.891.891,0,0,0,.48-.48.866.866,0,0,0,.069-.339v-4.434a.888.888,0,0,0-1.775,0v2.293l-5.581-5.581a.886.886,0,1,0-1.253,1.253Z" transform="translate(-0.012)"/><path class="a" d="M141.3,128H136.87a.888.888,0,0,0,0,1.775H141.3a.888.888,0,0,1,.888.888v10.643a.888.888,0,0,1-.888.888H130.661a.888.888,0,0,1-.888-.888V136.87a.887.887,0,1,0-1.773,0V141.3a2.663,2.663,0,0,0,2.661,2.661H141.3a2.663,2.663,0,0,0,2.661-2.661V130.661A2.663,2.663,0,0,0,141.3,128Z" transform="translate(0 -0.024)"/></g></svg>