<svg class="icon" viewBox="0 0 1024 1024" xmlns="http://www.w3.org/2000/svg" width="128" height="128"><defs><style/></defs><path d="M684.8 153.6H230.4c-19.2 0-19.2 25.6 0 25.6h454.4c19.2 0 19.2-25.6 0-25.6zm0 134.4H230.4c-19.2 0-19.2 25.6 0 25.6h454.4c19.2 0 19.2-25.6 0-25.6zm0 134.4H230.4c-12.8 0-12.8 25.6 0 25.6h454.4c19.2 0 19.2-25.6 0-25.6z"/><path d="M544 825.6c0-108.8 89.6-198.4 198.4-198.4 44.8 0 89.6 19.2 121.6 44.8V121.6C864 51.2 806.4 0 742.4 0H179.2c-70.4 0-128 57.6-128 121.6V896c0 70.4 57.6 121.6 121.6 121.6h588.8H736c-102.4 6.4-192-83.2-192-192zM102.4 563.2V121.6c0-38.4 32-76.8 76.8-76.8h563.2c38.4 0 76.8 32 76.8 76.8v441.6H102.4z"/><path d="M998.4 633.6c-147.2 44.8-243.2 236.8-243.2 236.8 0-32-25.6-89.6-57.6-96l-76.8 38.4c57.6 25.6 134.4 160 128 166.4C825.6 876.8 915.2 806.4 992 761.6c0-38.4 0-76.8 6.4-128z"/></svg>