<svg xmlns="http://www.w3.org/2000/svg" width="32.324" height="27.211" viewBox="0 0 32.324 27.211"><defs><style>.a{fill:#0060ce;}</style></defs><g transform="translate(-43.048 -46.662)"><g transform="translate(43.048 46.662)"><path class="a" d="M85.629,175.255l-1.964-1.577a1.864,1.864,0,0,0-2.226,0l-2.826,3.043-4.825-3.8a1.847,1.847,0,0,0-2.2-.092l-5.117,3.441v-13.8H93.685v7.606a1.237,1.237,0,1,0,2.474,0v-7.71a2.372,2.372,0,0,0-2.37-2.37H66.37A2.372,2.372,0,0,0,64,162.37v22.472a2.372,2.372,0,0,0,2.37,2.37H82.027a1.237,1.237,0,0,0,0-2.474H66.474v-5.482l6.121-4.116,6.224,4.978,3.732-4.182,1.593,1.3a1.237,1.237,0,1,0,1.484-1.979Z" transform="translate(-64 -160)"/><path class="a" d="M576,291.711A3.711,3.711,0,1,0,579.711,288,3.715,3.715,0,0,0,576,291.711Zm4.948,0a1.237,1.237,0,1,1-1.237-1.237A1.239,1.239,0,0,1,580.948,291.711Z" transform="translate(-556.21 -283.052)"/><path class="a" d="M605.655,501.021l1.4-1.4-4.707-4.707-4.707,4.707,1.4,1.4,2.3-2.3v4.606h2v-4.606Zm-8.311,4.306h2v2h-2Zm4.005,0h2v2h-2Zm4.005,0h2v2h-2Z" transform="translate(-575.033 -480.118)"/></g></g></svg>