<svg class="icon" viewBox="0 0 1024 1024" xmlns="http://www.w3.org/2000/svg" width="200" height="200"><defs><style/></defs><path d="M491.975 211.263c208.744 0 307.534 86.289 307.534 86.289v-226.1S647.199 9.8 495.495 9.8c-157.287 0-312.753 61.652-312.753 61.652v246.731l24.273-24.15s74.88-82.77 284.96-82.77zM429.473 92.084h41.142V50.942h41.142v41.142H552.9v41.142h-41.142v41.142h-41.142v-41.142h-41.142V92.084zM329.35 673.777C147.304 703.997 18.174 791.62 18.174 951.94c2.427 41.627 27.064 64.929 72.818 64.808 105.828-.243 223.55.485 400.134.485v-62.987c-57.648-25.001-114.446-281.441-161.777-280.47zm445.28-192.603c18.933-6.675 43.084-21.846 51.822-62.745 11.166-51.822-28.884-64.2-28.884-64.2-3.398-.122-7.039 2.548-10.68 7.038-6.432-15.777-18.447-31.069-31.069-40.9-72.21-55.947-142.723-58.982-244.182-58.617-112.018.364-205.225 19.66-255.712 59.832-13.35 10.68-24.272 23.301-30.34 37.622-2.913-3.277-5.947-5.097-8.739-4.976 0 0-39.564 12.5-28.52 64.444 8.374 39.686 30.948 55.341 49.395 62.26 40.05 108.74 133.256 178.645 256.682 178.645 123.305 0 240.178-69.783 280.227-178.403zm-80.95 192.603c-47.331-.971-103.765 255.348-161.412 280.348v62.988c176.583 0 293.94-.729 399.77-.486 45.753.122 70.39-26.336 72.817-68.084 0-160.2-129.13-244.547-311.175-274.766z"/></svg>