<svg xmlns="http://www.w3.org/2000/svg" xmlns:xlink="http://www.w3.org/1999/xlink" width="24" height="24" viewBox="0 0 24 24"><defs><style>.a,.c{fill:#53638b;}.a{stroke:#707070;}.b{clip-path:url(#a);}</style><clipPath id="a"><rect class="a" width="24" height="24" transform="translate(0.225)"/></clipPath></defs><g class="b" transform="translate(-0.225)"><g transform="translate(0.486 0.82)"><path class="c" d="M137.9,117.845H123.895a.741.741,0,0,1-.742-.742v-1.148h-1.011a.741.741,0,0,1-.742-.742V101.69a.741.741,0,0,1,.742-.742h1.011V99.242a.741.741,0,0,1,.742-.742H137.9a.741.741,0,0,1,.742.742v1.707H140a.741.741,0,0,1,.742.742v13.521a.741.741,0,0,1-.742.742h-1.359V117.1A.74.74,0,0,1,137.9,117.845Zm-13.264-1.483h12.522v-1.148a.741.741,0,0,1,.742-.742h1.359V102.434H137.9a.741.741,0,0,1-.742-.742V99.986H124.636v1.707a.741.741,0,0,1-.742.742h-1.012v12.038h1.012a.741.741,0,0,1,.742.742Z" transform="translate(-119.474 -97.272)"/><path class="c" d="M194.217,200.367a.742.742,0,0,1-.525-1.267L207.7,185.092a.743.743,0,0,1,1.05,1.05L194.742,200.15A.748.748,0,0,1,194.217,200.367Z" transform="translate(-189.797 -181.547)"/><path class="c" d="M46.62,70.36H42.942a.741.741,0,0,1-.742-.742V65.939a.741.741,0,0,1,.742-.742H46.62a.741.741,0,0,1,.742.742v3.676A.742.742,0,0,1,46.62,70.36Zm-2.935-1.483h2.193V66.683H43.686Zm8.362-.326a.742.742,0,0,1-.525-1.267l10.392-10.39a.743.743,0,0,1,1.05,1.05L52.573,68.334A.748.748,0,0,1,52.047,68.551Zm-7.1-7.951a.742.742,0,0,1-.525-1.267L53.75,50a.743.743,0,0,1,1.05,1.05l-9.332,9.327A.731.731,0,0,1,44.945,60.6Zm1.675-7.438H42.942a.741.741,0,0,1-.742-.742V48.742A.741.741,0,0,1,42.942,48H46.62a.741.741,0,0,1,.742.742v3.676A.744.744,0,0,1,46.62,53.162Zm-2.935-1.486h2.193V49.483H43.686ZM64.3,53.162H60.626a.741.741,0,0,1-.742-.742V48.742A.741.741,0,0,1,60.626,48H64.3a.741.741,0,0,1,.742.742v3.676A.74.74,0,0,1,64.3,53.162ZM61.37,51.676h2.193V49.483H61.37ZM64.3,70.36H60.626a.741.741,0,0,1-.742-.742V65.939a.741.741,0,0,1,.742-.742H64.3a.741.741,0,0,1,.742.742v3.676A.738.738,0,0,1,64.3,70.36ZM61.37,68.877h2.193V66.683H61.37Z" transform="translate(-42.2 -48)"/></g></g></svg>