<svg xmlns="http://www.w3.org/2000/svg" xmlns:xlink="http://www.w3.org/1999/xlink" width="24" height="24" viewBox="0 0 24 24"><defs><style>.a{stroke:#707070;}.a,.c{fill:url(#a);}.b{clip-path:url(#b);}</style><linearGradient id="a" x1="0.5" x2="0.5" y2="1" gradientUnits="objectBoundingBox"><stop offset="0" stop-color="#fff"/><stop offset="0.441" stop-color="#fff" stop-opacity="0.8"/><stop offset="1" stop-color="#fff" stop-opacity="0.451"/></linearGradient><clipPath id="b"><rect class="a" width="24" height="24"/></clipPath></defs><g class="b"><g transform="translate(1.639 1.412)"><path class="c" d="M-1455.194-5321.463h-.611a2.442,2.442,0,0,1-2.491-2.383v-16.41a2.442,2.442,0,0,1,2.491-2.383h11.948a2.441,2.441,0,0,1,2.491,2.383v6.575c-.536-.045-1.128-.068-1.711-.068-1.586,0-5.414.187-6.709,1.912a1.308,1.308,0,0,0-.27.8v7.64a1.3,1.3,0,0,0,.133.579,2.919,2.919,0,0,0,1.661,1.35h-6.932Zm.39-7.829a.693.693,0,0,0,.692.692h2.455a.691.691,0,0,0,.69-.692.692.692,0,0,0-.69-.692h-2.455A.694.694,0,0,0-1454.8-5329.292Zm.011-4.472a.693.693,0,0,0,.692.692h3.758a.692.692,0,0,0,.691-.692.692.692,0,0,0-.691-.692h-3.758A.694.694,0,0,0-1454.793-5333.764Zm-.011-4.472a.692.692,0,0,0,.692.69h8.989a.691.691,0,0,0,.692-.69.693.693,0,0,0-.692-.692h-8.989A.694.694,0,0,0-1454.8-5338.235Zm11.63,16.321c-1.487,0-4.91-.163-5.6-1.58a.682.682,0,0,1-.068-.3v-6.845a.666.666,0,0,1,.138-.416c1.071-1.44,4.875-1.66,7.18-1.452,2.156.185,3.469.715,3.884,1.557a.767.767,0,0,1,.07.311v3.619h0v3.226a.82.82,0,0,1-.056.277c-.589,1.325-3.505,1.567-5.188,1.6Zm-4.288-2.109c.346.276,1.73.715,4.15.726,2.513.022,4.01-.427,4.356-.715v-1.729a14.566,14.566,0,0,1-4.311.553h-.253a13.22,13.22,0,0,1-3.942-.541Zm0-3.217a9.164,9.164,0,0,0,4.138.669,9.574,9.574,0,0,0,4.368-.68v-1.925a13.01,13.01,0,0,1-4.311.634h-.012a12.516,12.516,0,0,1-4.183-.622Zm.3-3.3a8.285,8.285,0,0,0,3.18.6,10.942,10.942,0,0,0,4.783-.634,7.349,7.349,0,0,0-2.454-.552c-.489-.044-.974-.064-1.445-.064A10.594,10.594,0,0,0-1447.161-5330.536Z" transform="translate(1458.295 5342.639)"/></g></g></svg>