<svg xmlns="http://www.w3.org/2000/svg" xmlns:xlink="http://www.w3.org/1999/xlink" width="24" height="24" viewBox="0 0 24 24"><defs><style>.a,.c{fill:#53638b;}.a{stroke:#707070;}.b{clip-path:url(#a);}</style><clipPath id="a"><rect class="a" width="24" height="24" transform="translate(-0.462)"/></clipPath></defs><g class="b" transform="translate(0.462)"><g transform="translate(1.72 0.788)"><path class="c" d="M16.172,22.424H1.939A1.775,1.775,0,0,1,.25,21.406a1.787,1.787,0,0,1,.091-1.964,8.84,8.84,0,0,0,1.772-4.219c.032-1.157.04-2.216.023-3.146l0-.128L2.017,11.9a1.842,1.842,0,0,1-.733-.6,1.764,1.764,0,0,1-.29-1.659l.933-3.113a1.869,1.869,0,0,1,1.8-1.335h4.1V1.876A1.792,1.792,0,0,1,8.368.549,1.791,1.791,0,0,1,9.694,0h2.075a1.789,1.789,0,0,1,1.326.55,1.792,1.792,0,0,1,.55,1.326V5.188h4.1a1.837,1.837,0,0,1,1.119.37,1.811,1.811,0,0,1,.678.965l.933,3.113a1.893,1.893,0,0,1-1.234,2.338l-.174.051.032.178a16.713,16.713,0,0,1,.255,3.044,43.715,43.715,0,0,1-.305,4.613,2.756,2.756,0,0,1-.948,1.833A2.816,2.816,0,0,1,16.172,22.424Zm-4.2-6.862h1.676a19.555,19.555,0,0,1-.65,4.934l-.068.253h3.247a1.192,1.192,0,0,0,.814-.31,1.166,1.166,0,0,0,.4-.761,42.241,42.241,0,0,0,.294-4.432,14.533,14.533,0,0,0-.285-3.039l-.035-.157H3.812l0,.2c.012.866,0,1.881-.027,3.017a10.471,10.471,0,0,1-2.047,5.093.245.245,0,0,0-.014.254.235.235,0,0,0,.211.132H5.111l.059-.09a9.45,9.45,0,0,0,1.609-5.1H8.455A10.977,10.977,0,0,1,7.23,20.456l-.151.293h4.094l.043-.141a17.512,17.512,0,0,0,.751-5.045Zm-8.393-8.7h0L2.519,10.374H18.943L17.889,6.862H12.806a.922.922,0,0,1-.318-.061.972.972,0,0,1-.15-.082.761.761,0,0,1-.126-.1.807.807,0,0,1-.1-.125.785.785,0,0,1-.077-.145.862.862,0,0,1-.048-.156.892.892,0,0,1-.016-.164V1.675H9.494V6.026a.822.822,0,0,1-.018.165.708.708,0,0,1-.046.154.847.847,0,0,1-.078.146.754.754,0,0,1-.1.126.922.922,0,0,1-.128.105.814.814,0,0,1-.143.077.794.794,0,0,1-.158.048.894.894,0,0,1-.163.015Z"/></g></g></svg>