<?xml version="1.0" standalone="no"?><!DOCTYPE svg PUBLIC "-//W3C//DTD SVG 1.1//EN" "http://www.w3.org/Graphics/SVG/1.1/DTD/svg11.dtd"><svg t="1701581180923" class="icon" viewBox="0 0 1024 1024" version="1.1" xmlns="http://www.w3.org/2000/svg" p-id="6880" xmlns:xlink="http://www.w3.org/1999/xlink" width="200" height="200"><path d="M1024 512c0 282.8-229.2 512-512 512S0 794.8 0 512 229.2 0 512 0s512 229.2 512 512" fill="#ffffff" p-id="6881" data-spm-anchor-id="a313x.search_index.0.i6.45283a81yi8odJ" class="selected"></path><path d="M407.92 663.92c-5.28 0-10.64-1.76-14.96-5.28-7.36-5.92-180.4-146.16-180.4-304.4 0-107.76 87.68-195.36 195.36-195.36s195.36 87.68 195.36 195.36c0 158.24-173.04 298.48-180.4 304.4-4.4 3.52-9.68 5.28-14.96 5.28z m0-457.04c-81.28 0-147.36 66.08-147.36 147.36 0 110.32 107.2 217.52 147.36 253.92 40.24-36.4 147.36-143.6 147.36-253.92 0-81.28-66.08-147.36-147.36-147.36z" fill="#2A2C2C" p-id="6882"></path><path d="M408 436.88c-46.96 0-85.2-38.24-85.2-85.2S361.04 266.48 408 266.48s85.2 38.24 85.2 85.2c0 47.04-38.24 85.2-85.2 85.2z m0-122.32c-20.48 0-37.2 16.64-37.2 37.2s16.64 37.2 37.2 37.2 37.2-16.64 37.2-37.2-16.72-37.2-37.2-37.2zM400.48 858.08l-33.92-33.92 38.56-38.56H200c-13.28 0-24-10.72-24-24V639.28h48V737.6h239.04c9.68 0 18.48 5.84 22.16 14.8 3.68 8.96 1.68 19.28-5.2 26.16l-79.52 79.52zM848 731.04h-48v-98.4H560.96c-9.68 0-18.48-5.84-22.16-14.8-3.68-8.96-1.68-19.28 5.2-26.16l79.52-79.52 33.92 33.92-38.56 38.56H824c13.28 0 24 10.72 24 24v122.4z" fill="#2A2C2C" p-id="6883"></path></svg>