<svg xmlns="http://www.w3.org/2000/svg" xmlns:xlink="http://www.w3.org/1999/xlink" width="24" height="24" viewBox="0 0 24 24"><defs><style>.a,.c{fill:#0060ce;}.a{stroke:#707070;}.b{clip-path:url(#a);}.d{fill:none;stroke:#0060ce;stroke-width:2px;}</style><clipPath id="a"><rect class="a" width="24" height="24" transform="translate(0.009)"/></clipPath></defs><g class="b" transform="translate(-0.009)"><g transform="translate(1.074 0.768)"><path class="c" d="M-1444.16,1017.183l2.124-5.779,10.674-10.636a1.888,1.888,0,0,1,1.336-.537,1.89,1.89,0,0,1,1.336.537l.889.9a2.01,2.01,0,0,1,0,2.76l-.006.006-10.566,10.661-5.787,2.092Zm2.052-1.973,2.041-1.183-.852-.858Zm1.847-3.338,1.423,1.43,7.839-7.933-1.374-1.382Zm9.873-10.124-1.131,1.138,1.614,1.623,1.131-1.138a.517.517,0,0,0,0-.728l-.89-.9a.5.5,0,0,0-.36-.149A.512.512,0,0,0-1430.388,1001.749Z" transform="translate(1310.22 -1167.498) rotate(-7)"/><line class="d" x2="14" transform="translate(-0.565 20.732)"/><line class="d" x2="2" transform="translate(14.435 20.732)"/><line class="d" x2="2" transform="translate(17.435 20.732)"/><line class="d" x2="2" transform="translate(20.435 20.732)"/></g><g transform="translate(32.595 1.282)"><path class="c" d="M172.464,126.777H167a3.248,3.248,0,0,1-3.245-3.245v-28.8A3.248,3.248,0,0,1,167,91.488h22.786a3.248,3.248,0,0,1,3.245,3.245v8.542a1.217,1.217,0,0,1-2.434,0V94.733a.836.836,0,0,0-.811-.811H167a.836.836,0,0,0-.811.811v28.8a.836.836,0,0,0,.811.811h5.464a1.217,1.217,0,0,1,0,2.434Z" transform="translate(-163.755 -91.488)"/><path class="c" d="M323.8,272.6H308.935a1.217,1.217,0,0,1,0-2.434H323.8a1.217,1.217,0,1,1,0,2.434Zm-5.965,7.4h-8.9a1.217,1.217,0,1,1,0-2.434h8.9a1.222,1.222,0,0,1,1.217,1.217A1.207,1.207,0,0,1,317.835,279.994Zm-5.249,7.564h-3.651a1.217,1.217,0,0,1,0-2.434h3.651a1.217,1.217,0,0,1,0,2.434Zm4.772,9.974a1.1,1.1,0,0,1-.764-.31,1.119,1.119,0,0,1-.31-.931l.764-4.6a1.2,1.2,0,0,1,.31-.6L328.143,280.3a1.066,1.066,0,0,1,1.527,0l3.865,3.865a1.066,1.066,0,0,1,0,1.527l-10.761,10.761a1.111,1.111,0,0,1-.6.31l-4.653.764c-.048-.024-.1,0-.167,0ZM322.035,295.67Zm-2.887-3.317-.453,2.768,2.815-.453,9.759-9.759-2.338-2.338Z" transform="translate(-301.682 -262.671)"/></g></g></svg>