<svg xmlns="http://www.w3.org/2000/svg" xmlns:xlink="http://www.w3.org/1999/xlink" width="24" height="24" viewBox="0 0 24 24"><defs><style>.a,.c{fill:#53638b;}.a{stroke:#707070;}.b{clip-path:url(#a);}</style><clipPath id="a"><rect class="a" width="24" height="24" transform="translate(0.009)"/></clipPath></defs><g class="b" transform="translate(-0.009)"><g transform="translate(2.524 0.87)"><g transform="translate(0 1.309)"><path class="c" d="M7.18,8.722H4.362a1.091,1.091,0,0,0,0,2.182H9.812a1.065,1.065,0,0,0,.417-.084,1.1,1.1,0,0,0,.59-.59,1.064,1.064,0,0,0,.084-.417V4.363a1.091,1.091,0,1,0-2.182,0V7.181L1.86.32A1.09,1.09,0,0,0,.319,1.861Z" transform="translate(10.904 10.904) rotate(180)"/><path class="c" d="M144.354,128H138.9a1.091,1.091,0,1,0,0,2.182h5.451a1.092,1.092,0,0,1,1.091,1.091v13.083a1.092,1.092,0,0,1-1.091,1.091H131.271a1.092,1.092,0,0,1-1.091-1.091V138.9a1.09,1.09,0,1,0-2.18,0v5.451a3.274,3.274,0,0,0,3.271,3.271h13.083a3.274,3.274,0,0,0,3.271-3.271V131.271A3.274,3.274,0,0,0,144.354,128Z" transform="translate(-128 -127.999)"/></g></g><g transform="translate(32.595 1.282)"><path class="c" d="M172.464,126.777H167a3.248,3.248,0,0,1-3.245-3.245v-28.8A3.248,3.248,0,0,1,167,91.488h22.786a3.248,3.248,0,0,1,3.245,3.245v8.542a1.217,1.217,0,0,1-2.434,0V94.733a.836.836,0,0,0-.811-.811H167a.836.836,0,0,0-.811.811v28.8a.836.836,0,0,0,.811.811h5.464a1.217,1.217,0,0,1,0,2.434Z" transform="translate(-163.755 -91.488)"/><path class="c" d="M323.8,272.6H308.935a1.217,1.217,0,0,1,0-2.434H323.8a1.217,1.217,0,1,1,0,2.434Zm-5.965,7.4h-8.9a1.217,1.217,0,1,1,0-2.434h8.9a1.222,1.222,0,0,1,1.217,1.217A1.207,1.207,0,0,1,317.835,279.994Zm-5.249,7.564h-3.651a1.217,1.217,0,0,1,0-2.434h3.651a1.217,1.217,0,0,1,0,2.434Zm4.772,9.974a1.1,1.1,0,0,1-.764-.31,1.119,1.119,0,0,1-.31-.931l.764-4.6a1.2,1.2,0,0,1,.31-.6L328.143,280.3a1.066,1.066,0,0,1,1.527,0l3.865,3.865a1.066,1.066,0,0,1,0,1.527l-10.761,10.761a1.111,1.111,0,0,1-.6.31l-4.653.764c-.048-.024-.1,0-.167,0ZM322.035,295.67Zm-2.887-3.317-.453,2.768,2.815-.453,9.759-9.759-2.338-2.338Z" transform="translate(-301.682 -262.671)"/></g></g></svg>