<svg xmlns="http://www.w3.org/2000/svg" xmlns:xlink="http://www.w3.org/1999/xlink" width="24" height="24" viewBox="0 0 24 24"><defs><style>.a{stroke:#707070;}.a,.c{fill:url(#a);}.b{clip-path:url(#b);}</style><linearGradient id="a" x1="0.5" y1="0.296" x2="0.5" y2="1" gradientUnits="objectBoundingBox"><stop offset="0" stop-color="#fff"/><stop offset="1" stop-color="#fff" stop-opacity="0.451"/></linearGradient><clipPath id="b"><rect class="a" width="24" height="24"/></clipPath></defs><g class="b"><g transform="translate(0 1.501)"><path class="c" d="M162.758,277.093q-2.742-2.568-5.472-5.153-1.258-1.184-2.517-2.372c-.073.061-.135.11-.194.165q-3.935,3.713-7.868,7.433a.7.7,0,0,0-.166.442q-.015,3.76-.006,7.522c0,.778.359,1.18,1.046,1.18q2.531,0,5.06,0c.091,0,.182-.012.3-.02v-6.243h3.644v6.264h5.328c.738,0,1.079-.392,1.079-1.244,0-2.464,0-4.928,0-7.39A.715.715,0,0,0,162.758,277.093Z" transform="translate(-142.76 -265.313)"/><path class="c" d="M23.672,114.393c-.893-.816-1.776-1.643-2.685-2.436a1.141,1.141,0,0,1-.423-.984c.024-1.973.012-3.947.01-5.92,0-.48-.138-.674-.5-.677q-1.4-.012-2.8,0c-.329,0-.488.181-.5.549-.012.326,0,.654,0,.981v2.164c-.15-.132-.234-.2-.317-.28l-3.107-2.853a1.742,1.742,0,0,0-2.673,0q-2.849,2.6-5.7,5.211-2.309,2.114-4.619,4.229c-.446.409-.461.615-.081,1.109.218.283.432.569.65.852.326.424.54.445.927.089q3.827-3.508,7.656-7.019c.828-.76,1.659-1.519,2.5-2.287l2.483,2.273,7.679,7.04c.383.351.6.326.924-.1.224-.292.446-.585.669-.877C24.11,115,24.092,114.777,23.672,114.393Z" transform="translate(-0.006 -104.312)"/></g></g></svg>