<svg xmlns="http://www.w3.org/2000/svg" xmlns:xlink="http://www.w3.org/1999/xlink" width="24" height="24" viewBox="0 0 24 24"><defs><style>.a,.c{fill:#53638b;}.a{stroke:#707070;}.b{clip-path:url(#a);}</style><clipPath id="a"><rect class="a" width="24" height="24" transform="translate(1364 29)"/></clipPath></defs><g class="b" transform="translate(-1364 -29)"><g transform="translate(1301.727 -32.474)"><path class="c" d="M381.676,307.049a1.192,1.192,0,0,0-1.686,0l-7.617,7.617a1.5,1.5,0,0,0-.434.932l-.24,2.849a1.223,1.223,0,0,0,1.219,1.328c.033,0,.069,0,.1,0l2.851-.24a1.493,1.493,0,0,0,.932-.431l7.617-7.617a1.193,1.193,0,0,0,0-1.686Zm-6.054,10.718-2.1.176.176-2.093,4.8-4.8,1.917,1.917Zm6.056-6.056-1.917-1.917,1.072-1.072,1.917,1.917Z" transform="translate(-300.558 -237.791)"/><path class="c" d="M69.836,81.023H67.149a1.57,1.57,0,0,0-.434-.431V66.38a1.58,1.58,0,0,0,.44-.436H81.41a1.626,1.626,0,0,0,.389.391v2.311a.89.89,0,0,0,1.779,0V66.333a1.556,1.556,0,1,0-2.164-2.168H67.12a1.556,1.556,0,1,0-2.184,2.166v14.3A1.557,1.557,0,1,0,67.118,82.8h2.718a.89.89,0,0,0,0-1.779Z"/></g></g></svg>