<svg xmlns="http://www.w3.org/2000/svg" xmlns:xlink="http://www.w3.org/1999/xlink" width="24" height="24" viewBox="0 0 24 24"><defs><style>.a,.c{fill:#53638b;}.a{stroke:#707070;}.b{clip-path:url(#a);}</style><clipPath id="a"><rect class="a" width="24" height="24" transform="translate(1364 29)"/></clipPath></defs><g class="b" transform="translate(-1364 -29)"><path class="c" d="M136.121,130.119a.871.871,0,0,1,0,1.742H120.772a.871.871,0,1,1,0-1.742Zm-7.675-20.405a7.908,7.908,0,0,1,8.131,7.665,7.378,7.378,0,0,1-1.933,4.961l-.14.154c-.138.15-.294.313-.715.742-.74.76-2.293,2.221-4.41,4.128a1.407,1.407,0,0,1-1.8.057l-.067-.057-.774-.7q-3.289-2.989-4.491-4.322a7.379,7.379,0,0,1-1.934-4.962A7.908,7.908,0,0,1,128.447,109.714Zm0,1.742a6.2,6.2,0,0,0-6.388,6,5.762,5.762,0,0,0,1.515,3.88l.127.138c.8.861,2.265,2.258,4.385,4.173l.361.326,1.042-.944c1.867-1.7,3.148-2.937,3.831-3.694a5.762,5.762,0,0,0,1.515-3.879,6.2,6.2,0,0,0-6.388-6Zm0,2.9a3.485,3.485,0,1,1-3.485,3.485A3.485,3.485,0,0,1,128.447,114.36Zm0,1.742a1.742,1.742,0,1,0,1.742,1.742A1.742,1.742,0,0,0,128.447,116.1Z" transform="translate(1247.553 -79.861)"/></g></svg>