<svg xmlns="http://www.w3.org/2000/svg" xmlns:xlink="http://www.w3.org/1999/xlink" width="24" height="24" viewBox="0 0 24 24"><defs><style>.a{stroke:#707070;}.a,.c{fill:url(#a);}.b{clip-path:url(#b);}</style><linearGradient id="a" x1="0.5" x2="0.5" y2="1" gradientUnits="objectBoundingBox"><stop offset="0" stop-color="#fff"/><stop offset="0.531" stop-color="#fff" stop-opacity="0.855"/><stop offset="1" stop-color="#fff" stop-opacity="0.439"/></linearGradient><clipPath id="b"><rect class="a" width="24" height="24"/></clipPath></defs><g class="b"><g transform="translate(1.898 1.412)"><path class="c" d="M-511.8-19.236h-.611a2.441,2.441,0,0,1-2.491-2.382V-38.029a2.441,2.441,0,0,1,2.491-2.382h.611v21.174Zm14.337,0H-510.8V-40.412h13.337a2.441,2.441,0,0,1,2.491,2.382v16.411A2.441,2.441,0,0,1-497.459-19.237Zm-5.915-16.9a4.722,4.722,0,0,0-4.717,4.716c0,3.21,3.955,7.624,4.123,7.81l.594.657.594-.657c.168-.186,4.122-4.6,4.122-7.81A4.721,4.721,0,0,0-503.374-36.14Z" transform="translate(514.898 40.413)"/><path class="c" d="M33.438,1.588v0Zm1.661,0v0Z" transform="translate(-30.117)"/><path class="c" d="M204.9,68.191a3.571,3.571,0,0,0-3.57,3.57c0,2.678,3.57,6.631,3.57,6.631s3.57-3.953,3.57-6.631A3.571,3.571,0,0,0,204.9,68.191Zm0,4.845a1.275,1.275,0,1,1,1.275-1.275A1.276,1.276,0,0,1,204.9,73.037Z" transform="translate(-193.379 -62.624)"/><circle class="c" cx="0.5" cy="0.5" r="0.5" transform="translate(11.002 8.588)"/></g></g></svg>