<svg xmlns="http://www.w3.org/2000/svg" width="17.908" height="19.536" viewBox="0 0 17.908 19.536"><defs><style>.a{fill:#c4ddff;}</style></defs><path class="a" d="M45.1,385.833a.81.81,0,0,0-.81.81v7.33a.81.81,0,0,0,.81.81H58.137a.81.81,0,0,0,.81-.81v-7.331a.81.81,0,0,0-.81-.81H45.1Zm13.032,10.578H45.1a2.441,2.441,0,0,1-2.438-2.438v-7.331a2.441,2.441,0,0,1,2.438-2.438H58.137a2.441,2.441,0,0,1,2.438,2.438v7.33a2.441,2.441,0,0,1-2.438,2.438Z" transform="translate(-42.667 -376.875)"/><path class="a" d="M265.768,8.954H264.14V4.884a3.256,3.256,0,1,0-6.512,0v4.07H256V4.884a4.884,4.884,0,1,1,9.768,0Zm-4.884,6.512a.816.816,0,0,1-.814-.814V12.21a.814.814,0,1,1,1.628,0v2.442a.816.816,0,0,1-.814.814" transform="translate(-251.93)"/></svg>