<svg xmlns="http://www.w3.org/2000/svg" xmlns:xlink="http://www.w3.org/1999/xlink" width="24" height="24" viewBox="0 0 24 24"><defs><style>.a{stroke:#707070;}.a,.c{fill:url(#a);}.b{clip-path:url(#b);}</style><linearGradient id="a" x1="0.5" x2="0.5" y2="1" gradientUnits="objectBoundingBox"><stop offset="0" stop-color="#fff"/><stop offset="1" stop-color="#fff" stop-opacity="0.341"/></linearGradient><clipPath id="b"><rect class="a" width="24" height="24"/></clipPath></defs><g class="b"><g transform="translate(1.299 4.28)"><path class="c" d="M749.447,637.142l-.662-.382a.05.05,0,0,1-.024-.054,2.519,2.519,0,0,0,0-1.095.049.049,0,0,1,.024-.054l.662-.382a.241.241,0,0,0,.087-.328l-.481-.833a.24.24,0,0,0-.328-.087l-.662.382a.05.05,0,0,1-.06-.006,2.489,2.489,0,0,0-.947-.547.052.052,0,0,1-.036-.048v-.956a.053.053,0,0,0-.051-.051h-1.341a.053.053,0,0,0-.051.051v.956a.051.051,0,0,1-.036.048,2.512,2.512,0,0,0-.947.547.049.049,0,0,1-.06.006l-.662-.382a.241.241,0,0,0-.328.087l-.481.833a.24.24,0,0,0,.087.328l.695.4a2.5,2.5,0,0,0,0,1.167l-.695.4a.24.24,0,0,0-.087.328l.481.833a.241.241,0,0,0,.328.087l.695-.4a2.487,2.487,0,0,0,.974.571.051.051,0,0,1,.036.048v.959a.053.053,0,0,0,.051.051h1.341a.053.053,0,0,0,.051-.051v-.956a.052.052,0,0,1,.036-.048,2.536,2.536,0,0,0,.947-.547.049.049,0,0,1,.06-.006l.662.382a.24.24,0,0,0,.328-.087l.481-.833A.241.241,0,0,0,749.447,637.142Zm-2.084-.812-.009.054c-.009.039-.018.075-.03.111a1.042,1.042,0,0,1-.217.376,1.113,1.113,0,0,1-.084.087,1.021,1.021,0,0,1-.232.159.644.644,0,0,1-.105.045l-.054.018a.905.905,0,0,1-.162.039,1.056,1.056,0,0,1-.172.012.853.853,0,0,1-.087,0,1.12,1.12,0,0,1-.246-.048,1.1,1.1,0,0,1-.391-.226,1.089,1.089,0,0,1-.211-.259,1.048,1.048,0,0,1-.1-.232.663.663,0,0,1-.021-.084c0-.021-.009-.042-.012-.06-.006-.036-.009-.069-.012-.105,0-.018,0-.039,0-.057a.344.344,0,0,1,0-.057c0-.039.006-.075.012-.111l.009-.054a1.085,1.085,0,0,1,.081-.241,1.033,1.033,0,0,1,.189-.274.539.539,0,0,1,.06-.057,1.113,1.113,0,0,1,.388-.225.924.924,0,0,1,.162-.039l.042-.006a.9.9,0,0,1,.129-.009c.042,0,.084,0,.123.006l.054.009a1.175,1.175,0,0,1,.153.036,1.079,1.079,0,0,1,.208.093,1,1,0,0,1,.181.132.862.862,0,0,1,.114.12,1.155,1.155,0,0,1,.168.289,1.03,1.03,0,0,1,.048.165l.009.054a1.033,1.033,0,0,1,.012.168A.465.465,0,0,1,747.362,636.33Z" transform="translate(-727.101 -621.876)"/><path class="c" d="M-677.1-4206.28h0l-6.7-1.443a.594.594,0,0,1-.5-.567V-4222.7a.565.565,0,0,1,.245-.459.7.7,0,0,1,.4-.125.784.784,0,0,1,.147.015l6.408,1.379v15.6Zm1-.091h0v-15.6l5.5-1.184v15.607l-5.5,1.183Zm6.574-1.224h0l-.073-.016v-15.605l6.622,1.426a.6.6,0,0,1,.494.567l.1,9.082c-.022.011-.043.022-.064.034l-.529.306a3.442,3.442,0,0,0-.767-.443v-.84a.562.562,0,0,0-.561-.562h-1.609a.562.562,0,0,0-.561.562v.84a3.5,3.5,0,0,0-.767.443l-.529-.306a.783.783,0,0,0-.394-.106.792.792,0,0,0-.683.394l-.577,1a.782.782,0,0,0-.079.6.786.786,0,0,0,.367.48l.529.3a3.348,3.348,0,0,0-.029.442,3.39,3.39,0,0,0,.029.443l-.53.3a.78.78,0,0,0-.366.478.779.779,0,0,0-.026.176Z" transform="translate(684.299 4223.28)"/></g></g></svg>