<svg xmlns="http://www.w3.org/2000/svg" xmlns:xlink="http://www.w3.org/1999/xlink" width="24" height="24" viewBox="0 0 24 24"><defs><style>.a,.c{fill:#53638b;}.a{stroke:#707070;}.b{clip-path:url(#a);}</style><clipPath id="a"><rect class="a" width="24" height="24"/></clipPath></defs><g class="b"><path class="c" d="M84.018,78.995l4.04-4.04h0a2.543,2.543,0,0,0,0-3.591l-3.5-3.5a2.538,2.538,0,0,0-3.591,0l-4.04,4.04-4.982,4.982-4.04,4.04a2.543,2.543,0,0,0,0,3.591l3.5,3.5a2.538,2.538,0,0,0,3.591,0l4.04-4.04ZM73.775,86.8a.83.83,0,0,1-1.148,0l-3.5-3.5a.813.813,0,0,1,0-1.148l2.729-2.729a.843.843,0,0,0,.2.36L73.58,81.3A.864.864,0,0,0,74.8,80.076l-1.519-1.519a.84.84,0,0,0-.36-.2l2.2-2.2a.841.841,0,0,0,.2.359l2.369,2.37a.864.864,0,0,0,1.222-1.222l-2.369-2.37a.841.841,0,0,0-.359-.2l2.2-2.2a.842.842,0,0,0,.2.359l1.519,1.519a.864.864,0,0,0,1.222-1.222L79.82,72.018a.838.838,0,0,0-.359-.2l2.729-2.729a.811.811,0,0,1,1.148,0l3.5,3.5a.813.813,0,0,1,0,1.148Z" transform="translate(-65.982 -65.94)"/></g></svg>