<svg xmlns="http://www.w3.org/2000/svg" xmlns:xlink="http://www.w3.org/1999/xlink" width="24" height="24" viewBox="0 0 24 24"><defs><style>.a{stroke:#707070;fill:url(#a);}.b{clip-path:url(#b);}.c{fill:url(#c);}</style><linearGradient id="a" x1="0.5" y1="0.296" x2="0.5" y2="1" gradientUnits="objectBoundingBox"><stop offset="0" stop-color="#fff"/><stop offset="1" stop-color="#fff" stop-opacity="0.451"/></linearGradient><clipPath id="b"><rect class="a" width="24" height="24"/></clipPath><linearGradient id="c" x1="0.5" y1="0.122" x2="0.5" y2="1" gradientUnits="objectBoundingBox"><stop offset="0" stop-color="#fff"/><stop offset="1" stop-color="#fff" stop-opacity="0.439"/></linearGradient></defs><g class="b"><path class="c" d="M62.622,133.328h3.147a1.327,1.327,0,0,0,1.241-1.4v-9.611a1.329,1.329,0,0,0-1.241-1.4H62.622a1.328,1.328,0,0,0-1.24,1.4v9.611c0,.772.392,1.388,1.137,1.388l.1.011m7.9,0h3.149A1.283,1.283,0,0,0,74.906,132V117.036a1.284,1.284,0,0,0-1.239-1.325H70.518a1.286,1.286,0,0,0-1.241,1.325V132a1.286,1.286,0,0,0,1.241,1.323m7.864,0H81.53a1.317,1.317,0,0,0,1.242-1.38v-5.506a1.318,1.318,0,0,0-1.242-1.382H78.382a1.318,1.318,0,0,0-1.241,1.382v5.506a1.317,1.317,0,0,0,1.241,1.38m3.34,1.044H62.454a1.034,1.034,0,1,0,0,2.066H81.722a1.034,1.034,0,1,0,0-2.066M81.722,134.372Z" transform="translate(-60.083 -115.075)"/></g></svg>