<svg xmlns="http://www.w3.org/2000/svg" xmlns:xlink="http://www.w3.org/1999/xlink" width="24" height="24" viewBox="0 0 24 24"><defs><style>.a{stroke:#707070;}.a,.c{fill:url(#a);}.b{clip-path:url(#b);}</style><linearGradient id="a" x1="0.5" x2="0.5" y2="1" gradientUnits="objectBoundingBox"><stop offset="0" stop-color="#fff"/><stop offset="1" stop-color="#fff" stop-opacity="0.302"/></linearGradient><clipPath id="b"><rect class="a" width="24" height="24"/></clipPath></defs><g class="b"><g transform="translate(1.064 2.489)"><path class="c" d="M-851.831-4202.078a1.17,1.17,0,0,1-1.169-1.169,1.171,1.171,0,0,1,1.169-1.17h9.733a1.172,1.172,0,0,1,1.17,1.17,1.171,1.171,0,0,1-1.17,1.169Zm0-5.406a1.17,1.17,0,0,1-1.169-1.169,1.17,1.17,0,0,1,1.169-1.169h9.733a1.171,1.171,0,0,1,1.17,1.169,1.171,1.171,0,0,1-1.17,1.169Zm0-5.408a1.171,1.171,0,0,1-1.169-1.17,1.171,1.171,0,0,1,1.169-1.17h9.733a1.172,1.172,0,0,1,1.17,1.17,1.172,1.172,0,0,1-1.17,1.17Zm0-5.406a1.169,1.169,0,0,1-1.169-1.169,1.171,1.171,0,0,1,1.169-1.17h9.733a1.172,1.172,0,0,1,1.17,1.17,1.17,1.17,0,0,1-1.17,1.169Z" transform="translate(862.8 4220.87)"/><path class="c" d="M192.086,263.812h-6.759a.726.726,0,0,1-.726-.726v-6.759a.727.727,0,0,1,.726-.726h6.759a.726.726,0,0,1,.726.726v6.756A.727.727,0,0,1,192.086,263.812Zm0,10.811h-6.759a.726.726,0,0,1-.726-.726v-6.756a.727.727,0,0,1,.726-.726h6.759a.726.726,0,0,1,.726.726V273.9A.724.724,0,0,1,192.086,274.623Z" transform="translate(-184.6 -255.6)"/></g></g></svg>